<svg width="29" height="29" viewBox="0 0 20 20" fill="none" xmlns="http://www.w3.org/2000/svg">
<path d="M13.5 0.262521V0.274969H13.75C14.6909 0.274969 15.5603 0.783895 16.203 1.64178C16.8458 2.49975 17.25 3.69441 17.25 5.01873C17.25 6.34304 16.8458 7.5377 16.203 8.39567C15.5603 9.25356 14.6909 9.76248 13.75 9.76248C13.3434 9.76248 12.9608 9.62619 12.5591 9.41042C12.6865 8.80296 12.75 8.18996 12.75 7.51561C12.75 5.40725 12.0998 3.55213 10.9984 2.16775C11.6006 1.07 12.4953 0.363547 13.5 0.262521ZM19.75 13.3333V17.2282H15.25V15.8302C15.25 14.6812 14.9059 13.6158 14.3458 12.7051C15.8561 12.548 17.1879 11.8185 18.1973 10.6852C19.1205 11.2242 19.75 12.2107 19.75 13.3333ZM2.75 7.49064C2.75 6.16632 3.15415 4.97166 3.79695 4.11369C4.43969 3.25581 5.30906 2.74688 6.25 2.74688C7.19094 2.74688 8.06031 3.25581 8.70305 4.11369C9.34585 4.97166 9.75 6.16632 9.75 7.49064C9.75 8.81495 9.34585 10.0096 8.70305 10.8676C8.06031 11.7255 7.19094 12.2344 6.25 12.2344C5.30906 12.2344 4.43969 11.7255 3.79695 10.8676C3.15415 10.0096 2.75 8.81495 2.75 7.49064ZM0.25 15.8552C0.25 14.7258 0.887117 13.7342 1.81948 13.1973C2.97172 14.4547 4.5106 15.2313 6.25 15.2313C7.98763 15.2313 9.52784 14.4792 10.6821 13.1982C11.6136 13.7353 12.25 14.7264 12.25 15.8552V19.75H0.25V15.8552Z" stroke="#455061" stroke-width="0.5"/>
</svg>
