<svg width="60" height="60" viewBox="0 0 44 33" fill="none" xmlns="http://www.w3.org/2000/svg">
<path d="M28.3619 20H26.2978C25.9537 20 25.6239 19.8705 25.3814 19.6402C25.139 19.4099 25.0041 19.0978 25.0066 18.7733V15.7156C25.0066 15.3408 24.8487 14.9813 24.5677 14.7162C24.2866 14.4512 23.9055 14.3023 23.508 14.3023H20.4826C19.6549 14.3023 18.984 14.9351 18.984 15.7156L28.3619 20ZM28.3619 20C29.3259 20.0023 30.2513 19.6428 30.9339 19.0008C31.6164 18.3588 32 17.487 32 16.5778V7.86685C32 7.13246 31.6548 6.43584 31.0575 5.96467L28.3619 20ZM18.484 15.7156V18.4064L18.4585 18.4144L18.4557 18.7784C18.4529 19.1508 18.1228 19.5 17.655 19.5H15.6381C13.877 19.5 12.5 18.1605 12.5 16.5689V7.87341C12.5163 7.29122 12.8088 6.73686 13.313 6.36831L13.313 6.36839L13.3206 6.36266L20.182 1.14498L20.189 1.13967L20.1958 1.13412C21.2013 0.31231 22.6955 0.286099 23.7335 1.07411L23.735 1.07525L30.752 6.3605C31.2315 6.74074 31.5 7.2935 31.5 7.86685V16.5778C31.5 17.3444 31.1768 18.0858 30.5913 18.6366C30.0047 19.1884 29.2035 19.502 28.3631 19.5H28.3619H26.2978C26.0778 19.5 25.8724 19.4169 25.7258 19.2777C25.5803 19.1394 25.5052 18.9586 25.5066 18.7772H25.5066V18.7733V15.7156C25.5066 15.1984 25.2885 14.7087 24.9107 14.3525C24.534 13.9972 24.0289 13.8023 23.508 13.8023H20.4826C19.4068 13.8023 18.484 14.6317 18.484 15.7156Z" fill="#FBFDFF" fill-opacity="0.3" stroke="#455061"/>
<path d="M1.342 32.066C1.23933 32.066 1.15867 32.0367 1.1 31.978C1.04133 31.912 1.012 31.824 1.012 31.714V24.597C1.012 24.4797 1.04133 24.3917 1.1 24.333C1.166 24.2743 1.254 24.245 1.364 24.245H5.478C5.58067 24.245 5.65767 24.2707 5.709 24.322C5.76767 24.3733 5.797 24.4503 5.797 24.553C5.797 24.641 5.76767 24.7143 5.709 24.773C5.65767 24.8243 5.58067 24.85 5.478 24.85H1.683V31.714C1.683 31.824 1.65367 31.912 1.595 31.978C1.54367 32.0367 1.45933 32.066 1.342 32.066ZM9.75365 32.066C9.65098 32.066 9.57032 32.0367 9.51165 31.978C9.45298 31.9193 9.42365 31.835 9.42365 31.725V27.215H7.04765V27.919C7.04765 28.5203 7.02198 29.0483 6.97065 29.503C6.91932 29.9503 6.83498 30.3353 6.71765 30.658C6.60765 30.9807 6.45732 31.252 6.26665 31.472C6.08332 31.692 5.84865 31.8753 5.56265 32.022C5.48932 32.0587 5.41965 32.0697 5.35365 32.055C5.28765 32.0477 5.23265 32.022 5.18865 31.978C5.14465 31.934 5.11532 31.8827 5.10065 31.824C5.08598 31.7653 5.08965 31.703 5.11165 31.637C5.14098 31.571 5.19598 31.5197 5.27665 31.483C5.49665 31.3583 5.67998 31.2043 5.82665 31.021C5.97332 30.8303 6.09065 30.5957 6.17865 30.317C6.26665 30.031 6.32532 29.6937 6.35465 29.305C6.39132 28.909 6.40965 28.4397 6.40965 27.897V27.05C6.40965 26.9253 6.44265 26.83 6.50865 26.764C6.57465 26.698 6.66998 26.665 6.79465 26.665H9.69865C9.82332 26.665 9.91865 26.698 9.98465 26.764C10.058 26.83 10.0946 26.9253 10.0946 27.05V31.725C10.0946 31.835 10.0653 31.9193 10.0066 31.978C9.94798 32.0367 9.86365 32.066 9.75365 32.066ZM14.1476 32.088C13.7883 32.088 13.4656 32.0183 13.1796 31.879C12.901 31.7397 12.6773 31.549 12.5086 31.307C12.3473 31.065 12.2666 30.7937 12.2666 30.493C12.2666 30.097 12.3656 29.7853 12.5636 29.558C12.7616 29.3307 13.0953 29.173 13.5646 29.085C14.034 28.9897 14.6793 28.942 15.5006 28.942H15.9736V29.437H15.5116C14.8516 29.437 14.3346 29.4663 13.9606 29.525C13.594 29.5763 13.3373 29.6753 13.1906 29.822C13.044 29.9687 12.9706 30.174 12.9706 30.438C12.9706 30.768 13.0843 31.0357 13.3116 31.241C13.539 31.4463 13.847 31.549 14.2356 31.549C14.551 31.549 14.826 31.4757 15.0606 31.329C15.3026 31.175 15.4933 30.966 15.6326 30.702C15.772 30.438 15.8416 30.1373 15.8416 29.8V28.546C15.8416 28.0547 15.7426 27.699 15.5446 27.479C15.3466 27.2517 15.0313 27.138 14.5986 27.138C14.32 27.138 14.0486 27.1747 13.7846 27.248C13.528 27.3213 13.253 27.4387 12.9596 27.6C12.879 27.644 12.8056 27.6587 12.7396 27.644C12.681 27.6293 12.6333 27.6 12.5966 27.556C12.5673 27.512 12.5453 27.4607 12.5306 27.402C12.5233 27.336 12.5343 27.2737 12.5636 27.215C12.593 27.1563 12.6443 27.1087 12.7176 27.072C13.0256 26.9033 13.3373 26.7787 13.6526 26.698C13.9753 26.61 14.287 26.566 14.5876 26.566C15.0203 26.566 15.376 26.6393 15.6546 26.786C15.9406 26.9327 16.1496 27.1527 16.2816 27.446C16.421 27.7393 16.4906 28.117 16.4906 28.579V31.725C16.4906 31.835 16.465 31.9193 16.4136 31.978C16.3623 32.0367 16.2853 32.066 16.1826 32.066C16.08 32.066 15.9993 32.0367 15.9406 31.978C15.882 31.9193 15.8526 31.835 15.8526 31.725V30.713H15.9626C15.8966 30.999 15.7793 31.2447 15.6106 31.45C15.442 31.6553 15.233 31.813 14.9836 31.923C14.7343 32.033 14.4556 32.088 14.1476 32.088ZM19.2439 32C19.1192 32 19.0239 31.9707 18.9579 31.912C18.8992 31.846 18.8699 31.7543 18.8699 31.637V27.028C18.8699 26.9107 18.8992 26.8227 18.9579 26.764C19.0239 26.698 19.1192 26.665 19.2439 26.665H21.3449C21.7482 26.665 22.0819 26.72 22.3459 26.83C22.6099 26.9327 22.8079 27.0867 22.9399 27.292C23.0719 27.4973 23.1379 27.7577 23.1379 28.073C23.1379 28.4177 23.0169 28.7073 22.7749 28.942C22.5402 29.1693 22.2286 29.305 21.8399 29.349V29.206C22.2799 29.2133 22.6356 29.3417 22.9069 29.591C23.1782 29.833 23.3139 30.1483 23.3139 30.537C23.3139 30.9843 23.1489 31.34 22.8189 31.604C22.4889 31.868 22.0269 32 21.4329 32H19.2439ZM19.5189 31.505H21.4329C21.8289 31.505 22.1296 31.4207 22.3349 31.252C22.5476 31.076 22.6539 30.8303 22.6539 30.515C22.6539 30.1923 22.5476 29.9503 22.3349 29.789C22.1296 29.6203 21.8289 29.536 21.4329 29.536H19.5189V31.505ZM19.5189 29.041H21.3449C21.7042 29.041 21.9829 28.9567 22.1809 28.788C22.3862 28.6193 22.4889 28.3883 22.4889 28.095C22.4889 27.7943 22.3862 27.5633 22.1809 27.402C21.9829 27.2407 21.7042 27.16 21.3449 27.16H19.5189V29.041ZM25.6691 32.066C25.5591 32.066 25.4748 32.0367 25.4161 31.978C25.3574 31.9193 25.3281 31.835 25.3281 31.725V26.94C25.3281 26.8227 25.3574 26.7347 25.4161 26.676C25.4748 26.6173 25.5591 26.588 25.6691 26.588C25.7718 26.588 25.8524 26.6173 25.9111 26.676C25.9698 26.7347 25.9991 26.8227 25.9991 26.94V28.964H29.1561V26.94C29.1561 26.8227 29.1854 26.7347 29.2441 26.676C29.3028 26.6173 29.3834 26.588 29.4861 26.588C29.5961 26.588 29.6804 26.6173 29.7391 26.676C29.7978 26.7347 29.8271 26.8227 29.8271 26.94V31.725C29.8271 31.835 29.7978 31.9193 29.7391 31.978C29.6804 32.0367 29.5961 32.066 29.4861 32.066C29.3834 32.066 29.3028 32.0367 29.2441 31.978C29.1854 31.9193 29.1561 31.835 29.1561 31.725V29.525H25.9991V31.725C25.9991 31.835 25.9698 31.9193 25.9111 31.978C25.8598 32.0367 25.7791 32.066 25.6691 32.066ZM33.8767 32.088C33.5174 32.088 33.1947 32.0183 32.9087 31.879C32.6301 31.7397 32.4064 31.549 32.2377 31.307C32.0764 31.065 31.9957 30.7937 31.9957 30.493C31.9957 30.097 32.0947 29.7853 32.2927 29.558C32.4907 29.3307 32.8244 29.173 33.2937 29.085C33.7631 28.9897 34.4084 28.942 35.2297 28.942H35.7027V29.437H35.2407C34.5807 29.437 34.0637 29.4663 33.6897 29.525C33.3231 29.5763 33.0664 29.6753 32.9197 29.822C32.7731 29.9687 32.6997 30.174 32.6997 30.438C32.6997 30.768 32.8134 31.0357 33.0407 31.241C33.2681 31.4463 33.5761 31.549 33.9647 31.549C34.2801 31.549 34.5551 31.4757 34.7897 31.329C35.0317 31.175 35.2224 30.966 35.3617 30.702C35.5011 30.438 35.5707 30.1373 35.5707 29.8V28.546C35.5707 28.0547 35.4717 27.699 35.2737 27.479C35.0757 27.2517 34.7604 27.138 34.3277 27.138C34.0491 27.138 33.7777 27.1747 33.5137 27.248C33.2571 27.3213 32.9821 27.4387 32.6887 27.6C32.6081 27.644 32.5347 27.6587 32.4687 27.644C32.4101 27.6293 32.3624 27.6 32.3257 27.556C32.2964 27.512 32.2744 27.4607 32.2597 27.402C32.2524 27.336 32.2634 27.2737 32.2927 27.215C32.3221 27.1563 32.3734 27.1087 32.4467 27.072C32.7547 26.9033 33.0664 26.7787 33.3817 26.698C33.7044 26.61 34.0161 26.566 34.3167 26.566C34.7494 26.566 35.1051 26.6393 35.3837 26.786C35.6697 26.9327 35.8787 27.1527 36.0107 27.446C36.1501 27.7393 36.2197 28.117 36.2197 28.579V31.725C36.2197 31.835 36.1941 31.9193 36.1427 31.978C36.0914 32.0367 36.0144 32.066 35.9117 32.066C35.8091 32.066 35.7284 32.0367 35.6697 31.978C35.6111 31.9193 35.5817 31.835 35.5817 31.725V30.713H35.6917C35.6257 30.999 35.5084 31.2447 35.3397 31.45C35.1711 31.6553 34.9621 31.813 34.7127 31.923C34.4634 32.033 34.1847 32.088 33.8767 32.088ZM42.251 32.066C42.1483 32.066 42.0677 32.0367 42.009 31.978C41.9503 31.9193 41.921 31.8387 41.921 31.736V29.877H41.052C40.722 29.877 40.447 29.9577 40.227 30.119C40.007 30.2803 39.8273 30.4783 39.688 30.713L39.028 31.868C38.9767 31.956 38.9143 32.0147 38.841 32.044C38.775 32.0733 38.709 32.077 38.643 32.055C38.577 32.0403 38.5183 32.0073 38.467 31.956C38.4157 31.9047 38.3827 31.846 38.368 31.78C38.3607 31.714 38.379 31.6407 38.423 31.56L39.028 30.515C39.16 30.295 39.3287 30.1117 39.534 29.965C39.7467 29.811 39.9557 29.734 40.161 29.734H40.26V29.811C39.6807 29.811 39.226 29.6753 38.896 29.404C38.566 29.1253 38.401 28.7367 38.401 28.238C38.401 27.9227 38.4707 27.6477 38.61 27.413C38.7493 27.171 38.9583 26.9877 39.237 26.863C39.523 26.731 39.8787 26.665 40.304 26.665H42.207C42.3243 26.665 42.4123 26.698 42.471 26.764C42.537 26.8227 42.57 26.9107 42.57 27.028V31.736C42.57 31.8387 42.5407 31.9193 42.482 31.978C42.4233 32.0367 42.3463 32.066 42.251 32.066ZM40.425 29.36H41.921V27.171H40.425C39.9557 27.171 39.611 27.2663 39.391 27.457C39.171 27.6477 39.061 27.9153 39.061 28.26C39.061 28.6047 39.171 28.876 39.391 29.074C39.611 29.2647 39.9557 29.36 40.425 29.36Z" fill="#455061"/>
</svg>
