<svg width="29" height="29" viewBox="0 0 20 20" fill="none" xmlns="http://www.w3.org/2000/svg">
<path d="M19.75 0.250336V13.75C19.75 15.6869 18.1869 17.25 16.25 17.25C14.3131 17.25 12.75 15.6869 12.75 13.75C12.75 11.8131 14.3131 10.25 16.25 10.25C16.6395 10.25 17.0617 10.3424 17.4209 10.4622L17.75 10.5719V10.225V5.075V4.81743L17.4925 4.82511C12.4571 4.97542 9.28121 5.50168 7.42487 6.08656L7.25 6.14165V6.325V16.25C7.25 18.1869 5.68693 19.75 3.75 19.75C1.81307 19.75 0.25 18.1869 0.25 16.25C0.25 14.3131 1.81307 12.75 3.75 12.75C4.13949 12.75 4.56168 12.8424 4.92094 12.9622L5.25 13.0719V12.725V2.61648C5.25913 2.60948 5.26917 2.60192 5.28014 2.59384C5.36326 2.53259 5.50013 2.44095 5.70565 2.32885C6.11679 2.10459 6.80238 1.79861 7.88118 1.49038C10.0108 0.881928 13.6654 0.26676 19.75 0.250336Z" stroke="#455061" stroke-width="0.5"/>
</svg>
