<svg width="300" height="300" viewBox="0 0 222 243" fill="none" xmlns="http://www.w3.org/2000/svg">
<g filter="url(#filter0_d_120_416)">
<rect x="33" y="33" width="156" height="156" rx="8" fill="url(#paint0_angular_120_416)" shape-rendering="crispEdges"/>
</g>
<path d="M118.163 116.543C116.796 118.033 115.063 119.809 112.963 121.872C112.963 121.872 112.962 121.872 112.962 121.872L111.5 123.301L110.038 121.872C110.038 121.872 110.037 121.872 110.037 121.872C107.937 119.809 106.204 118.033 104.837 116.543C103.472 115.056 102.395 113.73 101.601 112.564C100.806 111.397 100.264 110.345 99.9601 109.405C99.6532 108.455 99.5 107.485 99.5 106.493C99.5 104.47 100.118 102.813 101.337 101.484C102.554 100.158 104.055 99.5 105.875 99.5C106.878 99.5 107.832 99.7305 108.742 100.195C109.652 100.659 110.44 101.315 111.106 102.169L111.5 102.674L111.894 102.169C112.56 101.315 113.348 100.659 114.258 100.195C115.168 99.7305 116.122 99.5 117.125 99.5C118.945 99.5 120.446 100.158 121.663 101.484C122.882 102.813 123.5 104.47 123.5 106.493C123.5 107.485 123.347 108.455 123.04 109.405C122.736 110.345 122.194 111.397 121.399 112.564C120.605 113.73 119.528 115.056 118.163 116.543Z" fill="#D9D4CF" fill-opacity="0.9" stroke="#455061"/>
<path d="M35.416 233.168C35.1733 233.168 34.9773 233.093 34.828 232.944C34.6973 232.795 34.632 232.589 34.632 232.328V213.932C34.632 213.652 34.6973 213.447 34.828 213.316C34.9773 213.167 35.164 213.092 35.388 213.092C35.6307 213.092 35.8173 213.139 35.948 213.232C36.0787 213.325 36.2 213.475 36.312 213.68L44.32 228.884H43.536L51.488 213.68C51.6187 213.475 51.74 213.325 51.852 213.232C51.9827 213.139 52.1693 213.092 52.412 213.092C52.636 213.092 52.8133 213.167 52.944 213.316C53.0933 213.447 53.168 213.652 53.168 213.932V232.328C53.168 232.589 53.1027 232.795 52.972 232.944C52.8413 233.093 52.6453 233.168 52.384 233.168C52.1227 233.168 51.9173 233.093 51.768 232.944C51.6373 232.795 51.572 232.589 51.572 232.328V215.332H52.244L44.74 229.556C44.6467 229.743 44.544 229.883 44.432 229.976C44.32 230.069 44.1613 230.116 43.956 230.116C43.732 230.116 43.5547 230.069 43.424 229.976C43.312 229.864 43.2093 229.724 43.116 229.556L35.528 215.304H36.2V232.328C36.2 232.589 36.1347 232.795 36.004 232.944C35.8733 233.093 35.6773 233.168 35.416 233.168ZM63.5177 233.224C62.2484 233.224 61.1471 232.935 60.2137 232.356C59.2804 231.777 58.5524 230.965 58.0297 229.92C57.5257 228.875 57.2737 227.633 57.2737 226.196C57.2737 225.132 57.4137 224.171 57.6937 223.312C57.9924 222.453 58.4124 221.716 58.9537 221.1C59.5137 220.465 60.1764 219.989 60.9417 219.672C61.7257 219.336 62.5844 219.168 63.5177 219.168C64.8057 219.168 65.9164 219.457 66.8497 220.036C67.7831 220.615 68.5017 221.436 69.0057 222.5C69.5284 223.545 69.7897 224.777 69.7897 226.196C69.7897 227.279 69.6404 228.249 69.3417 229.108C69.0617 229.967 68.6417 230.704 68.0817 231.32C67.5404 231.936 66.8871 232.412 66.1217 232.748C65.3564 233.065 64.4884 233.224 63.5177 233.224ZM63.5177 231.796C64.4511 231.796 65.2537 231.581 65.9257 231.152C66.6164 230.704 67.1391 230.06 67.4937 229.22C67.8671 228.38 68.0537 227.372 68.0537 226.196C68.0537 224.423 67.6431 223.051 66.8217 222.08C66.0191 221.109 64.9177 220.624 63.5177 220.624C62.6031 220.624 61.8004 220.848 61.1097 221.296C60.4377 221.725 59.9151 222.36 59.5417 223.2C59.1871 224.021 59.0097 225.02 59.0097 226.196C59.0097 227.988 59.4204 229.369 60.2417 230.34C61.0631 231.311 62.1551 231.796 63.5177 231.796ZM82.941 233.168C82.6796 233.168 82.4743 233.093 82.325 232.944C82.1756 232.795 82.101 232.589 82.101 232.328V227.596H79.889C79.049 227.596 78.349 227.801 77.789 228.212C77.229 228.623 76.7716 229.127 76.417 229.724L74.737 232.664C74.6063 232.888 74.4476 233.037 74.261 233.112C74.093 233.187 73.925 233.196 73.757 233.14C73.589 233.103 73.4396 233.019 73.309 232.888C73.1783 232.757 73.0943 232.608 73.057 232.44C73.0383 232.272 73.085 232.085 73.197 231.88L74.737 229.22C75.073 228.66 75.5023 228.193 76.025 227.82C76.5663 227.428 77.0983 227.232 77.621 227.232H77.873V227.428C76.3983 227.428 75.241 227.083 74.401 226.392C73.561 225.683 73.141 224.693 73.141 223.424C73.141 222.621 73.3183 221.921 73.673 221.324C74.0276 220.708 74.5596 220.241 75.269 219.924C75.997 219.588 76.9023 219.42 77.985 219.42H82.829C83.1276 219.42 83.3516 219.504 83.501 219.672C83.669 219.821 83.753 220.045 83.753 220.344V232.328C83.753 232.589 83.6783 232.795 83.529 232.944C83.3796 233.093 83.1836 233.168 82.941 233.168ZM78.293 226.28H82.101V220.708H78.293C77.0983 220.708 76.221 220.951 75.661 221.436C75.101 221.921 74.821 222.603 74.821 223.48C74.821 224.357 75.101 225.048 75.661 225.552C76.221 226.037 77.0983 226.28 78.293 226.28ZM96.276 233.168C96.0333 233.168 95.8466 233.093 95.716 232.944C95.5853 232.795 95.52 232.589 95.52 232.328V220.12C95.52 219.933 95.548 219.775 95.604 219.644C95.66 219.513 95.744 219.411 95.856 219.336C95.968 219.261 96.108 219.224 96.276 219.224C96.4253 219.224 96.556 219.252 96.668 219.308C96.78 219.364 96.8733 219.439 96.948 219.532C97.0413 219.607 97.1253 219.709 97.2 219.84L102.24 228.996L107.28 219.84C107.355 219.709 107.429 219.597 107.504 219.504C107.579 219.411 107.672 219.345 107.784 219.308C107.896 219.252 108.027 219.224 108.176 219.224C108.437 219.224 108.624 219.299 108.736 219.448C108.867 219.597 108.932 219.821 108.932 220.12V232.328C108.932 232.589 108.867 232.795 108.736 232.944C108.605 233.093 108.419 233.168 108.176 233.168C107.933 233.168 107.747 233.093 107.616 232.944C107.485 232.795 107.42 232.589 107.42 232.328V221.38H108.008L102.884 230.508C102.809 230.639 102.716 230.751 102.604 230.844C102.511 230.919 102.389 230.956 102.24 230.956C102.072 230.956 101.941 230.919 101.848 230.844C101.755 230.751 101.661 230.639 101.568 230.508L96.444 221.38H97.06V232.328C97.06 232.589 96.9853 232.795 96.836 232.944C96.7053 233.093 96.5186 233.168 96.276 233.168ZM116.505 238.208C116.281 238.208 116.104 238.143 115.973 238.012C115.842 237.9 115.768 237.741 115.749 237.536C115.749 237.349 115.786 237.153 115.861 236.948L117.793 232.552V233.336L112.305 220.512C112.212 220.288 112.174 220.083 112.193 219.896C112.23 219.691 112.314 219.532 112.445 219.42C112.594 219.289 112.8 219.224 113.061 219.224C113.304 219.224 113.481 219.28 113.593 219.392C113.724 219.504 113.836 219.681 113.929 219.924L118.913 231.992H118.213L123.197 219.924C123.309 219.663 123.43 219.485 123.561 219.392C123.692 219.28 123.878 219.224 124.121 219.224C124.364 219.224 124.541 219.289 124.653 219.42C124.784 219.532 124.858 219.681 124.877 219.868C124.896 220.055 124.858 220.26 124.765 220.484L117.457 237.536C117.345 237.797 117.214 237.975 117.065 238.068C116.934 238.161 116.748 238.208 116.505 238.208ZM132.37 233.224C131.399 233.224 130.447 233.103 129.514 232.86C128.599 232.617 127.834 232.263 127.218 231.796C127.031 231.665 126.9 231.525 126.826 231.376C126.77 231.208 126.76 231.049 126.798 230.9C126.835 230.751 126.9 230.629 126.994 230.536C127.106 230.424 127.246 230.368 127.414 230.368C127.6 230.349 127.787 230.415 127.974 230.564C128.571 230.993 129.252 231.311 130.018 231.516C130.783 231.721 131.558 231.824 132.342 231.824C133.76 231.824 134.778 231.6 135.394 231.152C136.01 230.704 136.318 230.06 136.318 229.22C136.318 228.436 136.047 227.839 135.506 227.428C134.983 226.999 134.227 226.784 133.238 226.784H130.83C130.587 226.784 130.391 226.728 130.242 226.616C130.111 226.485 130.046 226.317 130.046 226.112C130.046 225.907 130.111 225.748 130.242 225.636C130.391 225.505 130.587 225.44 130.83 225.44H132.986C133.844 225.44 134.535 225.235 135.058 224.824C135.599 224.395 135.87 223.816 135.87 223.088C135.87 222.323 135.599 221.716 135.058 221.268C134.516 220.82 133.648 220.596 132.454 220.596C131.67 220.596 130.923 220.689 130.214 220.876C129.523 221.063 128.87 221.352 128.254 221.744C127.974 221.893 127.731 221.949 127.526 221.912C127.339 221.875 127.199 221.772 127.106 221.604C127.012 221.436 126.994 221.249 127.05 221.044C127.106 220.839 127.246 220.671 127.47 220.54C128.179 220.092 128.963 219.756 129.822 219.532C130.68 219.289 131.595 219.168 132.566 219.168C134.246 219.168 135.496 219.513 136.318 220.204C137.139 220.876 137.55 221.809 137.55 223.004C137.55 223.881 137.242 224.619 136.626 225.216C136.028 225.795 135.235 226.14 134.246 226.252V225.888C135.347 225.907 136.243 226.233 136.934 226.868C137.643 227.484 137.998 228.287 137.998 229.276C137.998 230.471 137.531 231.432 136.598 232.16C135.664 232.869 134.255 233.224 132.37 233.224ZM142.71 233C142.393 233 142.15 232.925 141.982 232.776C141.833 232.608 141.758 232.375 141.758 232.076V220.12C141.758 219.821 141.833 219.597 141.982 219.448C142.132 219.299 142.346 219.224 142.626 219.224C142.888 219.224 143.093 219.299 143.242 219.448C143.392 219.597 143.466 219.821 143.466 220.12V224.432H147.806C149.505 224.432 150.793 224.805 151.67 225.552C152.566 226.299 153.014 227.344 153.014 228.688C153.014 229.584 152.809 230.359 152.398 231.012C152.006 231.665 151.428 232.16 150.662 232.496C149.897 232.832 148.945 233 147.806 233H142.71ZM143.466 231.684H147.75C148.87 231.684 149.738 231.441 150.354 230.956C150.989 230.471 151.306 229.724 151.306 228.716C151.306 227.689 150.989 226.933 150.354 226.448C149.738 225.963 148.87 225.72 147.75 225.72H143.466V231.684ZM156.038 233.168C155.777 233.168 155.572 233.093 155.422 232.944C155.273 232.795 155.198 232.58 155.198 232.3V220.12C155.198 219.821 155.273 219.597 155.422 219.448C155.572 219.299 155.777 219.224 156.038 219.224C156.318 219.224 156.533 219.299 156.682 219.448C156.832 219.597 156.906 219.821 156.906 220.12V232.3C156.906 232.879 156.617 233.168 156.038 233.168ZM162.478 233.168C162.198 233.168 161.983 233.093 161.834 232.944C161.684 232.795 161.61 232.58 161.61 232.3V220.204C161.61 219.905 161.684 219.681 161.834 219.532C161.983 219.383 162.198 219.308 162.478 219.308C162.739 219.308 162.944 219.383 163.094 219.532C163.243 219.681 163.318 219.905 163.318 220.204V225.272H166.118L170.57 219.7C170.7 219.513 170.85 219.401 171.018 219.364C171.204 219.308 171.372 219.308 171.522 219.364C171.671 219.401 171.792 219.485 171.886 219.616C171.979 219.747 172.016 219.905 171.998 220.092C171.998 220.26 171.932 220.437 171.802 220.624L167.574 225.916L166.986 225.384C167.527 225.44 167.984 225.561 168.358 225.748C168.731 225.935 169.095 226.243 169.45 226.672C169.823 227.101 170.243 227.699 170.71 228.464L172.866 231.992C172.959 232.179 172.996 232.356 172.978 232.524C172.959 232.673 172.884 232.813 172.754 232.944C172.642 233.056 172.502 233.121 172.334 233.14C172.184 233.177 172.026 233.159 171.858 233.084C171.708 233.028 171.568 232.907 171.438 232.72L169.086 228.828C168.731 228.268 168.395 227.839 168.078 227.54C167.779 227.223 167.434 226.999 167.042 226.868C166.668 226.737 166.192 226.672 165.614 226.672H163.318V232.3C163.318 232.58 163.243 232.795 163.094 232.944C162.944 233.093 162.739 233.168 162.478 233.168ZM180.111 233.224C179.196 233.224 178.375 233.047 177.647 232.692C176.937 232.337 176.368 231.852 175.939 231.236C175.528 230.62 175.323 229.929 175.323 229.164C175.323 228.156 175.575 227.363 176.079 226.784C176.583 226.205 177.432 225.804 178.627 225.58C179.821 225.337 181.464 225.216 183.555 225.216H184.759V226.476H183.583C181.903 226.476 180.587 226.551 179.635 226.7C178.701 226.831 178.048 227.083 177.675 227.456C177.301 227.829 177.115 228.352 177.115 229.024C177.115 229.864 177.404 230.545 177.983 231.068C178.561 231.591 179.345 231.852 180.335 231.852C181.137 231.852 181.837 231.665 182.435 231.292C183.051 230.9 183.536 230.368 183.891 229.696C184.245 229.024 184.423 228.259 184.423 227.4V224.208C184.423 222.957 184.171 222.052 183.667 221.492C183.163 220.913 182.36 220.624 181.259 220.624C180.549 220.624 179.859 220.717 179.187 220.904C178.533 221.091 177.833 221.389 177.087 221.8C176.881 221.912 176.695 221.949 176.527 221.912C176.377 221.875 176.256 221.8 176.163 221.688C176.088 221.576 176.032 221.445 175.995 221.296C175.976 221.128 176.004 220.969 176.079 220.82C176.153 220.671 176.284 220.549 176.471 220.456C177.255 220.027 178.048 219.709 178.851 219.504C179.672 219.28 180.465 219.168 181.231 219.168C182.332 219.168 183.237 219.355 183.947 219.728C184.675 220.101 185.207 220.661 185.543 221.408C185.897 222.155 186.075 223.116 186.075 224.292V232.3C186.075 232.58 186.009 232.795 185.879 232.944C185.748 233.093 185.552 233.168 185.291 233.168C185.029 233.168 184.824 233.093 184.675 232.944C184.525 232.795 184.451 232.58 184.451 232.3V229.724H184.731C184.563 230.452 184.264 231.077 183.835 231.6C183.405 232.123 182.873 232.524 182.239 232.804C181.604 233.084 180.895 233.224 180.111 233.224Z" fill="#455061"/>
<defs>
<filter id="filter0_d_120_416" x="0" y="0" width="222" height="222" filterUnits="userSpaceOnUse" color-interpolation-filters="sRGB">
<feFlood flood-opacity="0" result="BackgroundImageFix"/>
<feColorMatrix in="SourceAlpha" type="matrix" values="0 0 0 0 0 0 0 0 0 0 0 0 0 0 0 0 0 0 127 0" result="hardAlpha"/>
<feMorphology radius="1" operator="dilate" in="SourceAlpha" result="effect1_dropShadow_120_416"/>
<feOffset/>
<feGaussianBlur stdDeviation="16"/>
<feComposite in2="hardAlpha" operator="out"/>
<feColorMatrix type="matrix" values="0 0 0 0 0.775 0 0 0 0 0.74174 0 0 0 0 0.708479 0 0 0 1 0"/>
<feBlend mode="normal" in2="BackgroundImageFix" result="effect1_dropShadow_120_416"/>
<feBlend mode="normal" in="SourceGraphic" in2="effect1_dropShadow_120_416" result="shape"/>
</filter>
<radialGradient id="paint0_angular_120_416" cx="0" cy="0" r="1" gradientUnits="userSpaceOnUse" gradientTransform="translate(111 111) rotate(90) scale(78)">
<stop stop-color="#C6BDB5"/>
<stop offset="0.633121" stop-color="#C6BDB5" stop-opacity="0.25"/>
</radialGradient>
</defs>
</svg>
