<svg width="90" height="80" viewBox="0 0 70 35" fill="none" xmlns="http://www.w3.org/2000/svg">
<path d="M1.342 32.066C1.24667 32.066 1.16967 32.0367 1.111 31.978C1.05967 31.9193 1.034 31.8387 1.034 31.736V24.509C1.034 24.399 1.05967 24.3183 1.111 24.267C1.16967 24.2083 1.243 24.179 1.331 24.179C1.42633 24.179 1.49967 24.1973 1.551 24.234C1.60233 24.2707 1.65 24.3293 1.694 24.41L4.84 30.383H4.532L7.656 24.41C7.70733 24.3293 7.755 24.2707 7.799 24.234C7.85033 24.1973 7.92367 24.179 8.019 24.179C8.107 24.179 8.17667 24.2083 8.228 24.267C8.28667 24.3183 8.316 24.399 8.316 24.509V31.736C8.316 31.8387 8.29033 31.9193 8.239 31.978C8.18767 32.0367 8.11067 32.066 8.008 32.066C7.90533 32.066 7.82467 32.0367 7.766 31.978C7.71467 31.9193 7.689 31.8387 7.689 31.736V25.059H7.953L5.005 30.647C4.96833 30.7203 4.928 30.7753 4.884 30.812C4.84 30.8487 4.77767 30.867 4.697 30.867C4.609 30.867 4.53933 30.8487 4.488 30.812C4.444 30.768 4.40367 30.713 4.367 30.647L1.386 25.048H1.65V31.736C1.65 31.8387 1.62433 31.9193 1.573 31.978C1.52167 32.0367 1.44467 32.066 1.342 32.066ZM12.932 32.088C12.4333 32.088 12.0006 31.9743 11.634 31.747C11.2673 31.5197 10.9813 31.2007 10.776 30.79C10.578 30.3793 10.479 29.8917 10.479 29.327C10.479 28.909 10.534 28.5313 10.644 28.194C10.7613 27.8567 10.9263 27.567 11.139 27.325C11.359 27.0757 11.6193 26.8887 11.92 26.764C12.228 26.632 12.5653 26.566 12.932 26.566C13.438 26.566 13.8743 26.6797 14.241 26.907C14.6076 27.1343 14.89 27.457 15.088 27.875C15.2933 28.2857 15.396 28.7697 15.396 29.327C15.396 29.7523 15.3373 30.1337 15.22 30.471C15.11 30.8083 14.945 31.098 14.725 31.34C14.5123 31.582 14.2556 31.769 13.955 31.901C13.6543 32.0257 13.3133 32.088 12.932 32.088ZM12.932 31.527C13.2986 31.527 13.614 31.4427 13.878 31.274C14.1493 31.098 14.3546 30.845 14.494 30.515C14.6406 30.185 14.714 29.789 14.714 29.327C14.714 28.6303 14.5526 28.0913 14.23 27.71C13.9146 27.3287 13.482 27.138 12.932 27.138C12.5726 27.138 12.2573 27.226 11.986 27.402C11.722 27.5707 11.5166 27.82 11.37 28.15C11.2306 28.4727 11.161 28.865 11.161 29.327C11.161 30.031 11.3223 30.5737 11.645 30.955C11.9676 31.3363 12.3966 31.527 12.932 31.527ZM21.1125 32.066C21.0099 32.066 20.9292 32.0367 20.8705 31.978C20.8119 31.9193 20.7825 31.8387 20.7825 31.736V29.877H19.9135C19.5835 29.877 19.3085 29.9577 19.0885 30.119C18.8685 30.2803 18.6889 30.4783 18.5495 30.713L17.8895 31.868C17.8382 31.956 17.7759 32.0147 17.7025 32.044C17.6365 32.0733 17.5705 32.077 17.5045 32.055C17.4385 32.0403 17.3799 32.0073 17.3285 31.956C17.2772 31.9047 17.2442 31.846 17.2295 31.78C17.2222 31.714 17.2405 31.6407 17.2845 31.56L17.8895 30.515C18.0215 30.295 18.1902 30.1117 18.3955 29.965C18.6082 29.811 18.8172 29.734 19.0225 29.734H19.1215V29.811C18.5422 29.811 18.0875 29.6753 17.7575 29.404C17.4275 29.1253 17.2625 28.7367 17.2625 28.238C17.2625 27.9227 17.3322 27.6477 17.4715 27.413C17.6109 27.171 17.8199 26.9877 18.0985 26.863C18.3845 26.731 18.7402 26.665 19.1655 26.665H21.0685C21.1859 26.665 21.2739 26.698 21.3325 26.764C21.3985 26.8227 21.4315 26.9107 21.4315 27.028V31.736C21.4315 31.8387 21.4022 31.9193 21.3435 31.978C21.2849 32.0367 21.2079 32.066 21.1125 32.066ZM19.2865 29.36H20.7825V27.171H19.2865C18.8172 27.171 18.4725 27.2663 18.2525 27.457C18.0325 27.6477 17.9225 27.9153 17.9225 28.26C17.9225 28.6047 18.0325 28.876 18.2525 29.074C18.4725 29.2647 18.8172 29.36 19.2865 29.36ZM27.4513 32.066C27.3559 32.066 27.2826 32.0367 27.2313 31.978C27.1799 31.9193 27.1543 31.8387 27.1543 31.736V26.94C27.1543 26.8667 27.1653 26.8043 27.1873 26.753C27.2093 26.7017 27.2423 26.6613 27.2863 26.632C27.3303 26.6027 27.3853 26.588 27.4513 26.588C27.5099 26.588 27.5613 26.599 27.6053 26.621C27.6493 26.643 27.6859 26.6723 27.7153 26.709C27.7519 26.7383 27.7849 26.7787 27.8143 26.83L29.7943 30.427L31.7743 26.83C31.8036 26.7787 31.8329 26.7347 31.8623 26.698C31.8916 26.6613 31.9283 26.6357 31.9723 26.621C32.0163 26.599 32.0676 26.588 32.1263 26.588C32.2289 26.588 32.3023 26.6173 32.3463 26.676C32.3976 26.7347 32.4233 26.8227 32.4233 26.94V31.736C32.4233 31.8387 32.3976 31.9193 32.3463 31.978C32.2949 32.0367 32.2216 32.066 32.1263 32.066C32.0309 32.066 31.9576 32.0367 31.9063 31.978C31.8549 31.9193 31.8293 31.8387 31.8293 31.736V27.435H32.0603L30.0473 31.021C30.0179 31.0723 29.9813 31.1163 29.9373 31.153C29.9006 31.1823 29.8529 31.197 29.7943 31.197C29.7283 31.197 29.6769 31.1823 29.6403 31.153C29.6036 31.1163 29.5669 31.0723 29.5303 31.021L27.5173 27.435H27.7593V31.736C27.7593 31.8387 27.7299 31.9193 27.6713 31.978C27.6199 32.0367 27.5466 32.066 27.4513 32.066ZM35.9483 34.046C35.8603 34.046 35.7907 34.0203 35.7393 33.969C35.688 33.925 35.6587 33.8627 35.6513 33.782C35.6513 33.7087 35.666 33.6317 35.6953 33.551L36.4543 31.824V32.132L34.2983 27.094C34.2617 27.006 34.247 26.9253 34.2543 26.852C34.269 26.7713 34.302 26.709 34.3533 26.665C34.412 26.6137 34.4927 26.588 34.5953 26.588C34.6907 26.588 34.7603 26.61 34.8043 26.654C34.8557 26.698 34.8997 26.7677 34.9363 26.863L36.8943 31.604H36.6193L38.5773 26.863C38.6213 26.7603 38.669 26.6907 38.7203 26.654C38.7717 26.61 38.845 26.588 38.9403 26.588C39.0357 26.588 39.1053 26.6137 39.1493 26.665C39.2007 26.709 39.23 26.7677 39.2373 26.841C39.2447 26.9143 39.23 26.995 39.1933 27.083L36.3223 33.782C36.2783 33.8847 36.227 33.9543 36.1683 33.991C36.117 34.0277 36.0437 34.046 35.9483 34.046ZM42.731 32.088C42.3496 32.088 41.9756 32.0403 41.609 31.945C41.2496 31.8497 40.949 31.7103 40.707 31.527C40.6336 31.4757 40.5823 31.4207 40.553 31.362C40.531 31.296 40.5273 31.2337 40.542 31.175C40.5566 31.1163 40.5823 31.0687 40.619 31.032C40.663 30.988 40.718 30.966 40.784 30.966C40.8573 30.9587 40.9306 30.9843 41.004 31.043C41.2386 31.2117 41.5063 31.3363 41.807 31.417C42.1076 31.4977 42.412 31.538 42.72 31.538C43.2773 31.538 43.677 31.45 43.919 31.274C44.161 31.098 44.282 30.845 44.282 30.515C44.282 30.207 44.1756 29.9723 43.963 29.811C43.7576 29.6423 43.4606 29.558 43.072 29.558H42.126C42.0306 29.558 41.9536 29.536 41.895 29.492C41.8436 29.4407 41.818 29.3747 41.818 29.294C41.818 29.2133 41.8436 29.151 41.895 29.107C41.9536 29.0557 42.0306 29.03 42.126 29.03H42.973C43.3103 29.03 43.5816 28.9493 43.787 28.788C43.9996 28.6193 44.106 28.392 44.106 28.106C44.106 27.8053 43.9996 27.567 43.787 27.391C43.5743 27.215 43.2333 27.127 42.764 27.127C42.456 27.127 42.1626 27.1637 41.884 27.237C41.6126 27.3103 41.356 27.424 41.114 27.578C41.004 27.6367 40.9086 27.6587 40.828 27.644C40.7546 27.6293 40.6996 27.589 40.663 27.523C40.6263 27.457 40.619 27.3837 40.641 27.303C40.663 27.2223 40.718 27.1563 40.806 27.105C41.0846 26.929 41.3926 26.797 41.73 26.709C42.0673 26.6137 42.4266 26.566 42.808 26.566C43.468 26.566 43.9593 26.7017 44.282 26.973C44.6046 27.237 44.766 27.6037 44.766 28.073C44.766 28.4177 44.645 28.7073 44.403 28.942C44.1683 29.1693 43.8566 29.305 43.468 29.349V29.206C43.9006 29.2133 44.2526 29.3417 44.524 29.591C44.8026 29.833 44.942 30.1483 44.942 30.537C44.942 31.0063 44.7586 31.384 44.392 31.67C44.0253 31.9487 43.4716 32.088 42.731 32.088ZM47.3433 32C47.2186 32 47.1233 31.9707 47.0573 31.912C46.9986 31.846 46.9693 31.7543 46.9693 31.637V26.94C46.9693 26.8227 46.9986 26.7347 47.0573 26.676C47.116 26.6173 47.2003 26.588 47.3103 26.588C47.413 26.588 47.4936 26.6173 47.5523 26.676C47.611 26.7347 47.6403 26.8227 47.6403 26.94V28.634H49.3453C50.0126 28.634 50.5186 28.7807 50.8633 29.074C51.2153 29.3673 51.3913 29.778 51.3913 30.306C51.3913 30.658 51.3106 30.9623 51.1493 31.219C50.9953 31.4757 50.768 31.67 50.4673 31.802C50.1666 31.934 49.7926 32 49.3453 32H47.3433ZM47.6403 31.483H49.3233C49.7633 31.483 50.1043 31.3877 50.3463 31.197C50.5956 31.0063 50.7203 30.713 50.7203 30.317C50.7203 29.9137 50.5956 29.6167 50.3463 29.426C50.1043 29.2353 49.7633 29.14 49.3233 29.14H47.6403V31.483ZM52.5793 32.066C52.4766 32.066 52.396 32.0367 52.3373 31.978C52.2786 31.9193 52.2493 31.835 52.2493 31.725V26.94C52.2493 26.8227 52.2786 26.7347 52.3373 26.676C52.396 26.6173 52.4766 26.588 52.5793 26.588C52.6893 26.588 52.7736 26.6173 52.8323 26.676C52.891 26.7347 52.9203 26.8227 52.9203 26.94V31.725C52.9203 31.9523 52.8066 32.066 52.5793 32.066ZM55.6591 32.066C55.5491 32.066 55.4648 32.0367 55.4061 31.978C55.3475 31.9193 55.3181 31.835 55.3181 31.725V26.973C55.3181 26.8557 55.3475 26.7677 55.4061 26.709C55.4648 26.6503 55.5491 26.621 55.6591 26.621C55.7618 26.621 55.8425 26.6503 55.9011 26.709C55.9598 26.7677 55.9891 26.8557 55.9891 26.973V28.964H57.0891L58.8381 26.775C58.8895 26.7017 58.9481 26.6577 59.0141 26.643C59.0875 26.621 59.1535 26.621 59.2121 26.643C59.2708 26.6577 59.3185 26.6907 59.3551 26.742C59.3918 26.7933 59.4065 26.8557 59.3991 26.929C59.3991 26.995 59.3735 27.0647 59.3221 27.138L57.6611 29.217L57.4301 29.008C57.6428 29.03 57.8225 29.0777 57.9691 29.151C58.1158 29.2243 58.2588 29.3453 58.3981 29.514C58.5448 29.6827 58.7098 29.9173 58.8931 30.218L59.7401 31.604C59.7768 31.6773 59.7915 31.747 59.7841 31.813C59.7768 31.8717 59.7475 31.9267 59.6961 31.978C59.6521 32.022 59.5971 32.0477 59.5311 32.055C59.4725 32.0697 59.4101 32.0623 59.3441 32.033C59.2855 32.011 59.2305 31.9633 59.1791 31.89L58.2551 30.361C58.1158 30.141 57.9838 29.9723 57.8591 29.855C57.7418 29.7303 57.6061 29.6423 57.4521 29.591C57.3055 29.5397 57.1185 29.514 56.8911 29.514H55.9891V31.725C55.9891 31.835 55.9598 31.9193 55.9011 31.978C55.8425 32.0367 55.7618 32.066 55.6591 32.066ZM63.1363 32.088C62.777 32.088 62.4543 32.0183 62.1683 31.879C61.8896 31.7397 61.666 31.549 61.4973 31.307C61.336 31.065 61.2553 30.7937 61.2553 30.493C61.2553 30.097 61.3543 29.7853 61.5523 29.558C61.7503 29.3307 62.084 29.173 62.5533 29.085C63.0226 28.9897 63.668 28.942 64.4893 28.942H64.9623V29.437H64.5003C63.8403 29.437 63.3233 29.4663 62.9493 29.525C62.5826 29.5763 62.326 29.6753 62.1793 29.822C62.0326 29.9687 61.9593 30.174 61.9593 30.438C61.9593 30.768 62.073 31.0357 62.3003 31.241C62.5276 31.4463 62.8356 31.549 63.2243 31.549C63.5396 31.549 63.8146 31.4757 64.0493 31.329C64.2913 31.175 64.482 30.966 64.6213 30.702C64.7606 30.438 64.8303 30.1373 64.8303 29.8V28.546C64.8303 28.0547 64.7313 27.699 64.5333 27.479C64.3353 27.2517 64.02 27.138 63.5873 27.138C63.3086 27.138 63.0373 27.1747 62.7733 27.248C62.5166 27.3213 62.2416 27.4387 61.9483 27.6C61.8676 27.644 61.7943 27.6587 61.7283 27.644C61.6696 27.6293 61.622 27.6 61.5853 27.556C61.556 27.512 61.534 27.4607 61.5193 27.402C61.512 27.336 61.523 27.2737 61.5523 27.215C61.5816 27.1563 61.633 27.1087 61.7063 27.072C62.0143 26.9033 62.326 26.7787 62.6413 26.698C62.964 26.61 63.2756 26.566 63.5763 26.566C64.009 26.566 64.3646 26.6393 64.6433 26.786C64.9293 26.9327 65.1383 27.1527 65.2703 27.446C65.4096 27.7393 65.4793 28.117 65.4793 28.579V31.725C65.4793 31.835 65.4536 31.9193 65.4023 31.978C65.351 32.0367 65.274 32.066 65.1713 32.066C65.0686 32.066 64.988 32.0367 64.9293 31.978C64.8706 31.9193 64.8413 31.835 64.8413 31.725V30.713H64.9513C64.8853 30.999 64.768 31.2447 64.5993 31.45C64.4306 31.6553 64.2216 31.813 63.9723 31.923C63.723 32.033 63.4443 32.088 63.1363 32.088Z" fill="#455061"/>
<path d="M39.2566 13.9671C38.1645 15.1574 36.7796 16.5766 35.1003 18.2258C35.1001 18.226 35.0999 18.2262 35.0997 18.2264L34 19.3009L32.9003 18.2264C32.9001 18.2262 32.8999 18.226 32.8997 18.2258C31.2204 16.5766 29.8355 15.1574 28.7434 13.9671C27.6536 12.7794 26.7954 11.7223 26.1632 10.7947C25.5307 9.86683 25.1026 9.03362 24.8633 8.29309C24.6209 7.54323 24.5 6.77767 24.5 5.99455C24.5 4.39869 24.9867 3.09734 25.9434 2.05465C26.8978 1.01447 28.072 0.5 29.5 0.5C30.2865 0.5 31.0337 0.680555 31.7478 1.04484C32.4629 1.40968 33.0818 1.9245 33.6057 2.59631L34 3.10187L34.3943 2.59631C34.9182 1.9245 35.5371 1.40968 36.2522 1.04484C36.9663 0.680555 37.7135 0.5 38.5 0.5C39.928 0.5 41.1022 1.01447 42.0566 2.05465C43.0132 3.09734 43.5 4.39869 43.5 5.99455C43.5 6.77767 43.3791 7.54323 43.1367 8.29309C42.8974 9.03362 42.4692 9.86683 41.8368 10.7947C41.2046 11.7223 40.3463 12.7794 39.2566 13.9671Z" stroke="#455061"/>
</svg>
