<svg width="290" height="290" viewBox="0 0 252 242" fill="none" xmlns="http://www.w3.org/2000/svg">
<g filter="url(#filter0_d_120_1240)">
<rect x="33" y="33" width="156" height="156" rx="8" fill="url(#paint0_angular_120_1240)" shape-rendering="crispEdges"/>
</g>
<path d="M53.928 233.144C53.704 233.144 53.528 233.08 53.4 232.952C53.272 232.808 53.208 232.616 53.208 232.376V216.704C53.208 216.448 53.272 216.256 53.4 216.128C53.528 216 53.704 215.936 53.928 215.936C54.168 215.936 54.352 216 54.48 216.128C54.608 216.256 54.672 216.448 54.672 216.704V223.76H65.472V216.704C65.472 216.448 65.536 216.256 65.664 216.128C65.792 216 65.976 215.936 66.216 215.936C66.44 215.936 66.616 216 66.744 216.128C66.872 216.256 66.936 216.448 66.936 216.704V232.376C66.936 232.616 66.872 232.808 66.744 232.952C66.616 233.08 66.44 233.144 66.216 233.144C65.976 233.144 65.792 233.08 65.664 232.952C65.536 232.808 65.472 232.616 65.472 232.376V225.08H54.672V232.376C54.672 232.616 54.608 232.808 54.48 232.952C54.368 233.08 54.184 233.144 53.928 233.144ZM74.7566 233.192C73.9726 233.192 73.2686 233.04 72.6446 232.736C72.0366 232.432 71.5486 232.016 71.1806 231.488C70.8286 230.96 70.6526 230.368 70.6526 229.712C70.6526 228.848 70.8686 228.168 71.3006 227.672C71.7326 227.176 72.4606 226.832 73.4846 226.64C74.5086 226.432 75.9166 226.328 77.7086 226.328H78.7406V227.408H77.7326C76.2926 227.408 75.1646 227.472 74.3486 227.6C73.5486 227.712 72.9886 227.928 72.6686 228.248C72.3486 228.568 72.1886 229.016 72.1886 229.592C72.1886 230.312 72.4366 230.896 72.9326 231.344C73.4286 231.792 74.1006 232.016 74.9486 232.016C75.6366 232.016 76.2366 231.856 76.7486 231.536C77.2766 231.2 77.6926 230.744 77.9966 230.168C78.3006 229.592 78.4526 228.936 78.4526 228.2V225.464C78.4526 224.392 78.2366 223.616 77.8046 223.136C77.3726 222.64 76.6846 222.392 75.7406 222.392C75.1326 222.392 74.5406 222.472 73.9646 222.632C73.4046 222.792 72.8046 223.048 72.1646 223.4C71.9886 223.496 71.8286 223.528 71.6846 223.496C71.5566 223.464 71.4526 223.4 71.3726 223.304C71.3086 223.208 71.2606 223.096 71.2286 222.968C71.2126 222.824 71.2366 222.688 71.3006 222.56C71.3646 222.432 71.4766 222.328 71.6366 222.248C72.3086 221.88 72.9886 221.608 73.6766 221.432C74.3806 221.24 75.0606 221.144 75.7166 221.144C76.6606 221.144 77.4366 221.304 78.0446 221.624C78.6686 221.944 79.1246 222.424 79.4126 223.064C79.7166 223.704 79.8686 224.528 79.8686 225.536V232.4C79.8686 232.64 79.8126 232.824 79.7006 232.952C79.5886 233.08 79.4206 233.144 79.1966 233.144C78.9726 233.144 78.7966 233.08 78.6686 232.952C78.5406 232.824 78.4766 232.64 78.4766 232.4V230.192H78.7166C78.5726 230.816 78.3166 231.352 77.9486 231.8C77.5806 232.248 77.1246 232.592 76.5806 232.832C76.0366 233.072 75.4286 233.192 74.7566 233.192ZM88.6118 233.192C87.4758 233.192 86.4998 232.944 85.6838 232.448C84.8678 231.936 84.2358 231.224 83.7878 230.312C83.3558 229.384 83.1398 228.312 83.1398 227.096C83.1398 226.168 83.2598 225.344 83.4998 224.624C83.7558 223.888 84.1158 223.264 84.5798 222.752C85.0598 222.24 85.6358 221.848 86.3078 221.576C86.9958 221.288 87.7638 221.144 88.6118 221.144C89.2038 221.144 89.8118 221.248 90.4358 221.456C91.0598 221.648 91.6278 221.976 92.1398 222.44C92.2518 222.536 92.3238 222.648 92.3558 222.776C92.3878 222.904 92.3798 223.032 92.3318 223.16C92.2838 223.272 92.2118 223.368 92.1158 223.448C92.0198 223.512 91.8998 223.552 91.7558 223.568C91.6278 223.568 91.4918 223.504 91.3478 223.376C90.8998 223.008 90.4438 222.76 89.9798 222.632C89.5318 222.488 89.0918 222.416 88.6598 222.416C88.0038 222.416 87.4278 222.52 86.9318 222.728C86.4358 222.936 86.0118 223.24 85.6598 223.64C85.3238 224.04 85.0678 224.536 84.8918 225.128C84.7158 225.704 84.6278 226.368 84.6278 227.12C84.6278 228.624 84.9718 229.808 85.6598 230.672C86.3638 231.52 87.3638 231.944 88.6598 231.944C89.0918 231.944 89.5318 231.88 89.9798 231.752C90.4438 231.608 90.8998 231.352 91.3478 230.984C91.4918 230.856 91.6278 230.8 91.7558 230.816C91.8998 230.816 92.0198 230.856 92.1158 230.936C92.2118 231 92.2758 231.096 92.3078 231.224C92.3558 231.336 92.3638 231.456 92.3318 231.584C92.2998 231.712 92.2278 231.824 92.1158 231.92C91.6198 232.384 91.0598 232.712 90.4358 232.904C89.8118 233.096 89.2038 233.192 88.6118 233.192ZM98.2069 233.144C97.9829 233.144 97.8069 233.08 97.6789 232.952C97.5509 232.824 97.4869 232.64 97.4869 232.4V222.584H93.6949C93.2149 222.584 92.9749 222.376 92.9749 221.96C92.9749 221.784 93.0389 221.64 93.1669 221.528C93.2949 221.416 93.4709 221.36 93.6949 221.36H102.743C103.207 221.36 103.439 221.56 103.439 221.96C103.439 222.152 103.375 222.304 103.247 222.416C103.135 222.528 102.967 222.584 102.743 222.584H98.9509V232.4C98.9509 232.64 98.8869 232.824 98.7589 232.952C98.6469 233.08 98.4629 233.144 98.2069 233.144ZM106.143 237.464C105.903 237.464 105.719 237.4 105.591 237.272C105.463 237.144 105.399 236.96 105.399 236.72V221.96C105.399 221.704 105.463 221.512 105.591 221.384C105.719 221.256 105.903 221.192 106.143 221.192C106.367 221.192 106.543 221.256 106.671 221.384C106.799 221.512 106.863 221.704 106.863 221.96V224.408L106.599 224.264C106.871 223.304 107.391 222.544 108.159 221.984C108.927 221.424 109.855 221.144 110.943 221.144C111.983 221.144 112.887 221.392 113.655 221.888C114.439 222.384 115.039 223.08 115.455 223.976C115.887 224.872 116.103 225.936 116.103 227.168C116.103 228.4 115.887 229.472 115.455 230.384C115.039 231.28 114.447 231.976 113.679 232.472C112.911 232.952 111.999 233.192 110.943 233.192C109.855 233.192 108.927 232.912 108.159 232.352C107.391 231.792 106.871 231.048 106.599 230.12H106.863V236.72C106.863 236.96 106.799 237.144 106.671 237.272C106.543 237.4 106.367 237.464 106.143 237.464ZM110.727 231.968C111.511 231.968 112.191 231.784 112.767 231.416C113.359 231.032 113.815 230.48 114.135 229.76C114.455 229.04 114.615 228.176 114.615 227.168C114.615 225.648 114.263 224.472 113.559 223.64C112.855 222.808 111.911 222.392 110.727 222.392C109.943 222.392 109.255 222.584 108.663 222.968C108.087 223.336 107.639 223.88 107.319 224.6C106.999 225.304 106.839 226.16 106.839 227.168C106.839 228.704 107.191 229.888 107.895 230.72C108.599 231.552 109.543 231.968 110.727 231.968ZM124.023 233.192C122.935 233.192 121.991 232.944 121.191 232.448C120.391 231.952 119.767 231.256 119.319 230.36C118.887 229.464 118.671 228.4 118.671 227.168C118.671 226.256 118.791 225.432 119.031 224.696C119.287 223.96 119.647 223.328 120.111 222.8C120.591 222.256 121.159 221.848 121.815 221.576C122.487 221.288 123.223 221.144 124.023 221.144C125.127 221.144 126.079 221.392 126.879 221.888C127.679 222.384 128.295 223.088 128.727 224C129.175 224.896 129.399 225.952 129.399 227.168C129.399 228.096 129.271 228.928 129.015 229.664C128.775 230.4 128.415 231.032 127.935 231.56C127.471 232.088 126.911 232.496 126.255 232.784C125.599 233.056 124.855 233.192 124.023 233.192ZM124.023 231.968C124.823 231.968 125.511 231.784 126.087 231.416C126.679 231.032 127.127 230.48 127.431 229.76C127.751 229.04 127.911 228.176 127.911 227.168C127.911 225.648 127.559 224.472 126.855 223.64C126.167 222.808 125.223 222.392 124.023 222.392C123.239 222.392 122.551 222.584 121.959 222.968C121.383 223.336 120.935 223.88 120.615 224.6C120.311 225.304 120.159 226.16 120.159 227.168C120.159 228.704 120.511 229.888 121.215 230.72C121.919 231.552 122.855 231.968 124.023 231.968ZM133.376 233.144C133.248 233.144 133.128 233.12 133.016 233.072C132.92 233.024 132.84 232.944 132.776 232.832C132.728 232.704 132.704 232.544 132.704 232.352V221.936C132.704 221.696 132.76 221.512 132.872 221.384C133 221.256 133.176 221.192 133.4 221.192C133.608 221.192 133.768 221.256 133.88 221.384C133.992 221.512 134.048 221.696 134.048 221.936V231.704H133.472L140.936 221.672C141.048 221.528 141.168 221.416 141.296 221.336C141.424 221.24 141.592 221.192 141.8 221.192C141.944 221.192 142.064 221.224 142.16 221.288C142.256 221.336 142.328 221.416 142.376 221.528C142.44 221.64 142.472 221.792 142.472 221.984V232.424C142.472 232.648 142.408 232.824 142.28 232.952C142.168 233.08 142.008 233.144 141.8 233.144C141.576 233.144 141.408 233.08 141.296 232.952C141.184 232.824 141.128 232.648 141.128 232.424V222.656H141.704L134.215 232.688C134.12 232.816 134.008 232.92 133.88 233C133.752 233.096 133.584 233.144 133.376 233.144ZM137.576 219.848C136.792 219.848 136.048 219.64 135.344 219.224C134.64 218.792 134.104 218.12 133.736 217.208C133.656 217.016 133.648 216.856 133.712 216.728C133.776 216.6 133.872 216.504 134 216.44C134.16 216.392 134.296 216.4 134.408 216.464C134.536 216.512 134.64 216.64 134.72 216.848C135.008 217.488 135.384 217.976 135.848 218.312C136.328 218.648 136.904 218.816 137.576 218.816C138.248 218.816 138.816 218.648 139.28 218.312C139.744 217.976 140.128 217.488 140.432 216.848C140.512 216.64 140.616 216.512 140.744 216.464C140.872 216.4 141.008 216.392 141.152 216.44C141.296 216.504 141.392 216.6 141.44 216.728C141.504 216.856 141.488 217.016 141.392 217.208C141.04 218.136 140.512 218.808 139.808 219.224C139.104 219.64 138.36 219.848 137.576 219.848ZM147.252 233.144C147.012 233.144 146.828 233.08 146.7 232.952C146.572 232.824 146.508 232.64 146.508 232.4V222.032C146.508 221.776 146.572 221.584 146.7 221.456C146.828 221.328 147.012 221.264 147.252 221.264C147.476 221.264 147.652 221.328 147.78 221.456C147.908 221.584 147.972 221.776 147.972 222.032V226.376H150.372L154.188 221.6C154.3 221.44 154.428 221.344 154.572 221.312C154.732 221.264 154.876 221.264 155.004 221.312C155.132 221.344 155.236 221.416 155.316 221.528C155.396 221.64 155.428 221.776 155.412 221.936C155.412 222.08 155.356 222.232 155.244 222.392L151.62 226.928L151.116 226.472C151.58 226.52 151.972 226.624 152.292 226.784C152.612 226.944 152.924 227.208 153.228 227.576C153.548 227.944 153.908 228.456 154.308 229.112L156.156 232.136C156.236 232.296 156.268 232.448 156.252 232.592C156.236 232.72 156.172 232.84 156.06 232.952C155.964 233.048 155.844 233.104 155.7 233.12C155.572 233.152 155.436 233.136 155.292 233.072C155.164 233.024 155.044 232.92 154.932 232.76L152.916 229.424C152.612 228.944 152.324 228.576 152.052 228.32C151.796 228.048 151.5 227.856 151.164 227.744C150.844 227.632 150.436 227.576 149.94 227.576H147.972V232.4C147.972 232.64 147.908 232.824 147.78 232.952C147.652 233.08 147.476 233.144 147.252 233.144ZM159.438 233.144C159.31 233.144 159.19 233.12 159.078 233.072C158.982 233.024 158.902 232.944 158.838 232.832C158.79 232.704 158.766 232.544 158.766 232.352V221.936C158.766 221.696 158.822 221.512 158.934 221.384C159.062 221.256 159.238 221.192 159.462 221.192C159.67 221.192 159.83 221.256 159.942 221.384C160.054 221.512 160.11 221.696 160.11 221.936V231.704H159.534L166.998 221.672C167.11 221.528 167.23 221.416 167.358 221.336C167.486 221.24 167.654 221.192 167.862 221.192C168.006 221.192 168.126 221.224 168.222 221.288C168.318 221.336 168.39 221.416 168.438 221.528C168.502 221.64 168.534 221.792 168.534 221.984V232.424C168.534 232.648 168.47 232.824 168.342 232.952C168.23 233.08 168.07 233.144 167.862 233.144C167.638 233.144 167.47 233.08 167.358 232.952C167.246 232.824 167.19 232.648 167.19 232.424V222.656H167.766L160.278 232.688C160.182 232.816 160.07 232.92 159.942 233C159.814 233.096 159.646 233.144 159.438 233.144Z" fill="#455061"/>
<path d="M106.622 127L105.985 121.88C105.64 121.747 105.315 121.587 105.011 121.4C104.705 121.213 104.406 121.013 104.114 120.8L99.3781 122.8L95 115.2L99.0995 112.08C99.073 111.893 99.0597 111.713 99.0597 111.539V110.459C99.0597 110.286 99.073 110.107 99.0995 109.92L95 106.8L99.3781 99.2L104.114 101.2C104.406 100.987 104.711 100.787 105.03 100.6C105.348 100.413 105.667 100.253 105.985 100.12L106.622 95H115.378L116.015 100.12C116.36 100.253 116.685 100.413 116.991 100.6C117.295 100.787 117.594 100.987 117.886 101.2L122.622 99.2L127 106.8L122.9 109.92C122.927 110.107 122.94 110.286 122.94 110.459V111.539C122.94 111.713 122.914 111.893 122.861 112.08L126.96 115.2L122.582 122.8L117.886 120.8C117.594 121.013 117.289 121.213 116.97 121.4C116.652 121.587 116.333 121.747 116.015 121.88L115.378 127H106.622ZM111.08 116.6C112.619 116.6 113.932 116.053 115.02 114.96C116.108 113.867 116.652 112.547 116.652 111C116.652 109.453 116.108 108.133 115.02 107.04C113.932 105.947 112.619 105.4 111.08 105.4C109.514 105.4 108.194 105.947 107.119 107.04C106.045 108.133 105.507 109.453 105.507 111C105.507 112.547 106.045 113.867 107.119 114.96C108.194 116.053 109.514 116.6 111.08 116.6ZM111.08 113.4C110.416 113.4 109.853 113.166 109.389 112.699C108.924 112.233 108.692 111.667 108.692 111C108.692 110.333 108.924 109.767 109.389 109.301C109.853 108.834 110.416 108.6 111.08 108.6C111.743 108.6 112.307 108.834 112.772 109.301C113.236 109.767 113.468 110.333 113.468 111C113.468 111.667 113.236 112.233 112.772 112.699C112.307 113.166 111.743 113.4 111.08 113.4ZM109.408 123.8H112.552L113.109 119.56C113.932 119.347 114.695 119.033 115.399 118.619C116.101 118.206 116.745 117.707 117.328 117.12L121.269 118.76L122.821 116.04L119.398 113.44C119.531 113.067 119.624 112.673 119.677 112.259C119.73 111.846 119.756 111.427 119.756 111C119.756 110.573 119.73 110.153 119.677 109.739C119.624 109.326 119.531 108.933 119.398 108.56L122.821 105.96L121.269 103.24L117.328 104.92C116.745 104.307 116.101 103.793 115.399 103.379C114.695 102.966 113.932 102.653 113.109 102.44L112.592 98.2H109.448L108.891 102.44C108.068 102.653 107.305 102.966 106.603 103.379C105.899 103.793 105.255 104.293 104.672 104.88L100.731 103.24L99.1791 105.96L102.602 108.52C102.469 108.92 102.376 109.32 102.323 109.72C102.27 110.12 102.244 110.547 102.244 111C102.244 111.427 102.27 111.84 102.323 112.24C102.376 112.64 102.469 113.04 102.602 113.44L99.1791 116.04L100.731 118.76L104.672 117.08C105.255 117.693 105.899 118.206 106.603 118.619C107.305 119.033 108.068 119.347 108.891 119.56L109.408 123.8Z" fill="#2B5764" fill-opacity="0.4"/>
<defs>
<filter id="filter0_d_120_1240" x="0" y="0" width="262" height="252" filterUnits="userSpaceOnUse" color-interpolation-filters="sRGB">
<feFlood flood-opacity="0" result="BackgroundImageFix"/>
<feColorMatrix in="SourceAlpha" type="matrix" values="0 0 0 0 0 0 0 0 0 0 0 0 0 0 0 0 0 0 127 0" result="hardAlpha"/>
<feMorphology radius="1" operator="dilate" in="SourceAlpha" result="effect1_dropShadow_120_1240"/>
<feOffset/>
<feGaussianBlur stdDeviation="16"/>
<feComposite in2="hardAlpha" operator="out"/>
<feColorMatrix type="matrix" values="0 0 0 0 0.775 0 0 0 0 0.74174 0 0 0 0 0.708479 0 0 0 1 0"/>
<feBlend mode="normal" in2="BackgroundImageFix" result="effect1_dropShadow_120_1240"/>
<feBlend mode="normal" in="SourceGraphic" in2="effect1_dropShadow_120_1240" result="shape"/>
</filter>
<radialGradient id="paint0_angular_120_1240" cx="0" cy="0" r="1" gradientUnits="userSpaceOnUse" gradientTransform="translate(111 111) rotate(90) scale(78)">
<stop stop-color="#C6BDB5"/>
<stop offset="0.633121" stop-color="#C6BDB5" stop-opacity="0.25"/>
</radialGradient>
</defs>
</svg>
